<?xml version="1.0" encoding="UTF-8"?>
<svg version="1.1" xmlns="http://www.w3.org/2000/svg" width="593" height="594">
<path d="M0 0 C69.8335523 -1.66700344 139.33313955 20.8635897 193.65380859 65.06640625 C194.16250488 65.47890625 194.67120117 65.89140625 195.1953125 66.31640625 C208.18557951 76.90555215 220.83167292 88.24830985 231.65380859 101.06640625 C232.38253174 101.90268555 232.38253174 101.90268555 233.12597656 102.75585938 C247.7882392 119.59112864 260.32815543 138.27340358 270.65380859 158.06640625 C270.98783691 158.69885254 271.32186523 159.33129883 271.66601562 159.98291016 C288.82431642 192.63691745 299.69382855 228.37664617 303.65380859 265.06640625 C303.74807129 265.92322998 303.84233398 266.78005371 303.93945312 267.6628418 C304.85857299 277.13766869 304.89723598 286.61800319 304.90380859 296.12890625 C304.90482071 297.45124268 304.90482071 297.45124268 304.90585327 298.80029297 C304.81166164 376.67476549 273.59558695 447.86902577 220.96630859 504.44140625 C220.36085205 505.09536377 219.75539551 505.74932129 219.1315918 506.4230957 C214.87994178 510.94547807 210.36946524 515.0357355 205.65380859 519.06640625 C204.58171234 520.01491473 203.5112909 520.96532095 202.44287109 521.91796875 C187.4129374 535.16661197 171.09073229 546.23333623 153.65380859 556.06640625 C152.77128418 556.56527344 151.88875977 557.06414063 150.97949219 557.578125 C82.78407091 595.67256963 1.45618546 603.4850724 -73.48388672 582.87841797 C-149.50596476 561.31159508 -213.66122958 509.19341408 -252.23876953 440.53808594 C-271.372317 405.77321343 -282.41032961 368.34903495 -287.34619141 329.06640625 C-287.5030542 327.83144409 -287.5030542 327.83144409 -287.66308594 326.5715332 C-296.1022175 248.9964392 -271.27066209 170.89955112 -222.95898438 110.32714844 C-208.47543756 92.50205938 -192.44968479 76.29301261 -174.13330078 62.42089844 C-172.94849999 61.52291008 -171.76744624 60.61995489 -170.59033203 59.71191406 C-146.76759353 41.34910398 -119.65517941 27.09137889 -91.34619141 17.06640625 C-90.45109863 16.74833008 -89.55600586 16.43025391 -88.63378906 16.10253906 C-60.07023564 6.12068015 -30.21517725 0.85520585 0 0 Z " fill="#F5F4F4" transform="translate(288.34619140625,-0.06640625)"/>
<path d="M0 0 C1.92626605 -0.00514553 3.85252737 -0.01243157 5.77877808 -0.02168274 C10.98335663 -0.04012284 16.1874198 -0.02730536 21.39197659 -0.00759244 C26.85254543 0.00885417 32.31308316 -0.00002707 37.77366638 -0.00511169 C46.94050277 -0.00962555 56.10713463 0.00619429 65.27392578 0.03417969 C75.85603605 0.06623782 86.43777775 0.06620974 97.01991421 0.04896492 C107.22186415 0.03307544 117.42367961 0.03984838 127.6256237 0.05690193 C131.9575352 0.06375548 136.28933834 0.06275744 140.62124825 0.05535698 C145.7259928 0.04766926 150.83032021 0.05990139 155.93499374 0.08720589 C157.80296911 0.09406438 159.67098362 0.09421506 161.5389576 0.08699036 C174.73774271 0.04184184 184.80148983 0.86302759 194.84545898 10.33813477 C200.69600813 17.11184748 203.20798449 24.83537892 203.10327148 33.65454102 C202.36800444 41.5457169 198.42672429 49.06613295 192.82592773 54.63110352 C185.04847376 60.41598664 177.48114284 62.94035534 167.769104 62.89852905 C166.9868422 62.90306017 166.2045804 62.90759128 165.39861369 62.9122597 C162.79261826 62.92486094 160.18683296 62.92328611 157.58081055 62.92163086 C155.70602145 62.92761882 153.83123482 62.93442499 151.95645142 62.94198608 C146.87363159 62.959627 141.79087914 62.96434069 136.70803165 62.96561766 C133.52906917 62.96704101 130.35012371 62.97131412 127.17116547 62.97661209 C116.07104915 62.99510677 104.97098082 63.00328349 93.87084961 63.00170898 C83.53994196 63.00050807 73.2092434 63.02160215 62.87838864 63.05319631 C53.99576122 63.07938898 45.11320195 63.09007501 36.23053622 63.08879817 C30.93115557 63.08828937 25.63196075 63.09392688 20.33261871 63.11515427 C15.34534137 63.13458675 10.35842618 63.13462688 5.37113571 63.120121 C3.54710483 63.11803795 1.72305098 63.12270358 -0.1009407 63.13484192 C-12.41645046 63.21145091 -23.37245582 62.57070696 -33.38891602 54.46704102 C-39.54397396 48.13689389 -43.15703524 40.14068079 -43.54907227 31.38110352 C-43.29823964 21.62503459 -39.32898695 15.21598525 -33.07641602 7.95532227 C-22.8283946 -0.25137053 -12.49541582 -0.08508988 0 0 Z " fill="#FE6624" transform="translate(278.174072265625,296.368896484375)"/>
<path d="M0 0 C6.57908155 6.20977759 10.29145206 14.12090905 12.625 22.75 C12.80675781 23.38421875 12.98851562 24.0184375 13.17578125 24.671875 C15.50479197 35.4460811 12.67436013 46.10590425 7.015625 55.390625 C1.36018453 63.01768692 -5.51428284 69.19560585 -14.375 72.75 C-15.25671875 73.10578125 -16.1384375 73.4615625 -17.046875 73.828125 C-27.20866081 76.64289196 -39.37738145 75.98495443 -48.80078125 71.29296875 C-59.69293335 64.76428881 -67.20911766 56.5780137 -71.4921875 44.48046875 C-74.05413 33.65456129 -73.76385933 21.66016235 -68.375 11.75 C-66.58919262 8.85771254 -64.62010832 6.29879447 -62.375 3.75 C-61.86195312 3.14414063 -61.34890625 2.53828125 -60.8203125 1.9140625 C-44.346152 -16.13657269 -18.15069997 -14.70832584 0 0 Z " fill="#FE6524" transform="translate(172.375,234.25)"/>
</svg>
