<?xml version="1.0" encoding="UTF-8"?>
<!DOCTYPE svg PUBLIC "-//W3C//DTD SVG 1.1//EN" "http://www.w3.org/Graphics/SVG/1.1/DTD/svg11.dtd">
<svg xmlns="http://www.w3.org/2000/svg" version="1.1" width="2000px" height="606px" style="shape-rendering:geometricPrecision; text-rendering:geometricPrecision; image-rendering:optimizeQuality; fill-rule:evenodd; clip-rule:evenodd" xmlns:xlink="http://www.w3.org/1999/xlink">
<g><path style="opacity:0.997" fill="#001ad5" d="M 293.5,5.5 C 404.337,0.846177 492.837,42.5128 559,130.5C 613.7,212.072 627.034,300.072 599,394.5C 564.149,493.351 496.649,558.184 396.5,589C 294.382,614.316 202.716,593.983 121.5,528C 37.0786,450.072 4.91195,354.238 25,240.5C 49.842,137.6 111.009,65.767 208.5,25C 236.102,14.7166 264.436,8.21661 293.5,5.5 Z"/></g>
<g><path style="opacity:0.971" fill="#0019d6" d="M 1338.5,121.5 C 1353.83,121.5 1369.17,121.5 1384.5,121.5C 1384.5,244.167 1384.5,366.833 1384.5,489.5C 1369.17,489.5 1353.83,489.5 1338.5,489.5C 1338.5,366.833 1338.5,244.167 1338.5,121.5 Z"/></g>
<g><path style="opacity:0.983" fill="#0019d6" d="M 724.5,140.5 C 742.179,140.167 759.846,140.5 777.5,141.5C 813.138,240.09 849.138,338.424 885.5,436.5C 921.461,338.461 956.961,240.127 992,141.5C 1009.09,140.508 1026.26,140.175 1043.5,140.5C 1000.64,256.563 957.477,372.563 914,488.5C 893.909,489.493 873.743,489.827 853.5,489.5C 810.303,373.244 767.303,256.91 724.5,140.5 Z"/></g>
<g><path style="opacity:0.983" fill="#0019d6" d="M 1158.5,215.5 C 1233.82,211.996 1275.32,247.663 1283,322.5C 1284.01,337.484 1284.51,352.484 1284.5,367.5C 1220.5,367.5 1156.5,367.5 1092.5,367.5C 1092.97,441.81 1129.3,470.31 1201.5,453C 1225.12,442.612 1237.46,424.446 1238.5,398.5C 1253.51,398.167 1268.51,398.501 1283.5,399.5C 1279.4,451.438 1251.74,482.605 1200.5,493C 1096.29,506.795 1044.63,461.128 1045.5,356C 1043.83,323.703 1050.33,293.203 1065,264.5C 1078.56,243.455 1097.39,229.288 1121.5,222C 1133.79,218.749 1146.13,216.582 1158.5,215.5 Z M 1155.5,253.5 C 1202.7,248.819 1229.54,269.819 1236,316.5C 1236.5,322.157 1236.67,327.824 1236.5,333.5C 1188.83,333.5 1141.17,333.5 1093.5,333.5C 1093.94,312.737 1099.77,293.737 1111,276.5C 1122.95,263.109 1137.78,255.443 1155.5,253.5 Z"/></g>
<g><path style="opacity:0.983" fill="#0019d6" d="M 1552.5,215.5 C 1580.53,213.893 1607.2,219.06 1632.5,231C 1658.93,247.313 1675.43,270.813 1682,301.5C 1688.51,334.374 1689.17,367.374 1684,400.5C 1673.59,457.249 1639.75,488.749 1582.5,495C 1554.99,498.061 1528.32,494.728 1502.5,485C 1479.39,474.892 1462.56,458.392 1452,435.5C 1441.51,410.067 1436.68,383.567 1437.5,356C 1435.85,322.232 1443.35,290.732 1460,261.5C 1475.35,239.566 1496.18,225.732 1522.5,220C 1532.57,217.995 1542.57,216.495 1552.5,215.5 Z M 1550.5,254.5 C 1608.11,251.272 1637.95,278.605 1640,336.5C 1641.26,356.958 1640.26,377.291 1637,397.5C 1628.45,437.542 1603.61,457.542 1562.5,457.5C 1517.92,456.422 1492.75,433.755 1487,389.5C 1485.45,369.861 1485.12,350.195 1486,330.5C 1486.99,310.51 1493.33,292.51 1505,276.5C 1517.56,263.637 1532.72,256.304 1550.5,254.5 Z"/></g>
<g><path style="opacity:0.982" fill="#0019d6" d="M 1841.5,215.5 C 1923.68,211.197 1968.52,249.864 1976,331.5C 1979.26,364.229 1975.93,396.229 1966,427.5C 1948.52,469.193 1917.02,491.693 1871.5,495C 1843.19,498.211 1815.85,494.545 1789.5,484C 1758.16,467.903 1739,442.403 1732,407.5C 1724,368.92 1725,330.587 1735,292.5C 1746.99,253.51 1772.82,229.343 1812.5,220C 1822.23,217.968 1831.9,216.468 1841.5,215.5 Z M 1839.5,254.5 C 1891.14,249.377 1920.64,272.377 1928,323.5C 1929.54,342.138 1929.87,360.805 1929,379.5C 1924.11,437.862 1892.61,463.362 1834.5,456C 1809.5,452.42 1792.33,438.92 1783,415.5C 1778.54,403.214 1775.88,390.547 1775,377.5C 1773.68,355.708 1774.68,334.042 1778,312.5C 1784.86,278.52 1805.36,259.187 1839.5,254.5 Z"/></g>
<g><path style="opacity:1" fill="#b3fd07" d="M 154.5,228.5 C 174.206,226.774 189.373,234.108 200,250.5C 210.38,275.151 204.547,294.985 182.5,310C 159.86,319.671 141.026,314.837 126,295.5C 114.094,272.528 117.927,252.694 137.5,236C 143.032,232.894 148.699,230.394 154.5,228.5 Z"/></g>
<g><path style="opacity:1" fill="#b3fc09" d="M 278.5,302.5 C 343.834,302.333 409.168,302.5 474.5,303C 492.685,307.87 501.185,319.703 500,338.5C 496.745,352.754 487.912,361.254 473.5,364C 409.5,364.667 345.5,364.667 281.5,364C 264.449,360.395 255.449,349.895 254.5,332.5C 256.23,317.441 264.23,307.441 278.5,302.5 Z"/></g>
</svg>
